{
  "accessors": [
    {
      "name": "立方体-Mesh_0_positions",
      "componentType": 5126,
      "count": 220,
      "min": [
        -544.99755859375,
        7.321183681488037,
        -81.26260375976562
      ],
      "max": [
        541.5560913085938,
        205.30859375,
        18.737396240234375
      ],
      "type": "VEC3",
      "bufferView": 0,
      "byteOffset": 0
    },
    {
      "name": "立方体-Mesh_0_normals",
      "componentType": 5126,
      "count": 220,
      "min": [
        -1,
        -1,
        -1
      ],
      "max": [
        1,
        1,
        1
      ],
      "type": "VEC3",
      "bufferView": 1,
      "byteOffset": 0
    },
    {
      "name": "立方体-Mesh_0_texcoords",
      "componentType": 5126,
      "count": 220,
      "min": [
        0,
        0
      ],
      "max": [
        1,
        1
      ],
      "type": "VEC2",
      "bufferView": 2,
      "byteOffset": 0
    },
    {
      "name": "立方体-Mesh_0_indices",
      "componentType": 5123,
      "count": 606,
      "min": [
        0
      ],
      "max": [
        219
      ],
      "type": "SCALAR",
      "bufferView": 3,
      "byteOffset": 0
    },
    {
      "name": "挤压-Mesh_0_positions",
      "componentType": 5126,
      "count": 500,
      "min": [
        -477.31707763671875,
        30.357627868652344,
        -12.987508773803711
      ],
      "max": [
        436.74542236328125,
        174.1076202392578,
        18.737396240234375
      ],
      "type": "VEC3",
      "bufferView": 0,
      "byteOffset": 2640
    },
    {
      "name": "挤压-Mesh_0_normals",
      "componentType": 5126,
      "count": 500,
      "min": [
        -1,
        -1,
        0
      ],
      "max": [
        1,
        1,
        0
      ],
      "type": "VEC3",
      "bufferView": 1,
      "byteOffset": 2640
    },
    {
      "name": "挤压-Mesh_0_texcoords",
      "componentType": 5126,
      "count": 500,
      "min": [
        0,
        0.47125154733657837
      ],
      "max": [
        1,
        1
      ],
      "type": "VEC2",
      "bufferView": 2,
      "byteOffset": 1760
    },
    {
      "name": "挤压-Mesh_0_indices",
      "componentType": 5123,
      "count": 1092,
      "min": [
        0
      ],
      "max": [
        499
      ],
      "type": "SCALAR",
      "bufferView": 3,
      "byteOffset": 1212
    },
    {
      "name": "封顶_2-Mesh_0_positions",
      "componentType": 5126,
      "count": 182,
      "min": [
        -477.31707763671875,
        30.357627868652344,
        -12.987508773803711
      ],
      "max": [
        436.74542236328125,
        174.1076202392578,
        -12.987508773803711
      ],
      "type": "VEC3",
      "bufferView": 0,
      "byteOffset": 8640
    },
    {
      "name": "封顶_2-Mesh_0_normals",
      "componentType": 5126,
      "count": 182,
      "min": [
        0,
        0,
        -1
      ],
      "max": [
        0,
        0,
        1
      ],
      "type": "VEC3",
      "bufferView": 1,
      "byteOffset": 8640
    },
    {
      "name": "封顶_2-Mesh_0_texcoords",
      "componentType": 5126,
      "count": 182,
      "min": [
        0,
        0
      ],
      "max": [
        1,
        0.8173075914382935
      ],
      "type": "VEC2",
      "bufferView": 2,
      "byteOffset": 5760
    },
    {
      "name": "封顶_2-Mesh_0_indices",
      "componentType": 5123,
      "count": 522,
      "min": [
        0
      ],
      "max": [
        181
      ],
      "type": "SCALAR",
      "bufferView": 3,
      "byteOffset": 3396
    }
  ],
  "asset": {
    "generator": "obj2gltf",
    "version": "2.0"
  },
  "buffers": [
    {
      "name": "marvel",
      "byteLength": 33304,
      "uri": "data:application/octet-stream;base64,"
    }
  ],
  "bufferViews": [
    {
      "name": "bufferView_0",
      "buffer": 0,
      "byteLength": 10824,
      "byteOffset": 0,
      "byteStride": 12,
      "target": 34962
    },
    {
      "name": "bufferView_1",
      "buffer": 0,
      "byteLength": 10824,
      "byteOffset": 10824,
      "byteStride": 12,
      "target": 34962
    },
    {
      "name": "bufferView_2",
      "buffer": 0,
      "byteLength": 7216,
      "byteOffset": 21648,
      "byteStride": 8,
      "target": 34962
    },
    {
      "name": "bufferView_3",
      "buffer": 0,
      "byteLength": 4440,
      "byteOffset": 28864,
      "target": 34963
    }
  ],
  "materials": [
    {
      "name": "材质",
      "pbrMetallicRoughness": {
        "baseColorFactor": [
          0.30399999022484,
          0.51066666841507,
          0.80000001192093,
          1
        ],
        "metallicFactor": 0,
        "roughnessFactor": 0.95
      },
      "emissiveFactor": [
        0,
        0,
        0
      ],
      "alphaMode": "OPAQUE",
      "doubleSided": false
    },
    {
      "name": "default",
      "pbrMetallicRoughness": {
        "baseColorFactor": [
          1,
          1,
          1,
          1
        ],
        "metallicFactor": 0,
        "roughnessFactor": 1
      },
      "emissiveFactor": [
        0,
        0,
        0
      ],
      "alphaMode": "OPAQUE",
      "doubleSided": false
    }
  ],
  "meshes": [
    {
      "name": "立方体-Mesh",
      "primitives": [
        {
          "attributes": {
            "POSITION": 0,
            "NORMAL": 1,
            "TEXCOORD_0": 2
          },
          "indices": 3,
          "material": 0,
          "mode": 4
        }
      ]
    },
    {
      "name": "挤压-Mesh",
      "primitives": [
        {
          "attributes": {
            "POSITION": 4,
            "NORMAL": 5,
            "TEXCOORD_0": 6
          },
          "indices": 7,
          "material": 1,
          "mode": 4
        }
      ]
    },
    {
      "name": "封顶_2-Mesh",
      "primitives": [
        {
          "attributes": {
            "POSITION": 8,
            "NORMAL": 9,
            "TEXCOORD_0": 10
          },
          "indices": 11,
          "material": 1,
          "mode": 4
        }
      ]
    }
  ],
  "nodes": [
    {
      "name": "立方体",
      "mesh": 0
    },
    {
      "name": "挤压",
      "mesh": 1
    },
    {
      "name": "封顶_2",
      "mesh": 2
    }
  ],
  "scene": 0,
  "scenes": [
    {
      "nodes": [
        0,
        1,
        2
      ]
    }
  ]
}
